<?xml version="1.0" encoding="utf-8"?>
<!-- Generator: Adobe Illustrator 15.0.3, SVG Export Plug-In . SVG Version: 6.00 Build 0)  -->
<!DOCTYPE svg PUBLIC "-//W3C//DTD SVG 1.1//EN" "http://www.w3.org/Graphics/SVG/1.1/DTD/svg11.dtd">
<svg version="1.1" id="Neutral" xmlns="http://www.w3.org/2000/svg" xmlns:xlink="http://www.w3.org/1999/xlink" x="0px" y="0px"
	 width="100px" height="100px" viewBox="0 0 100 100" enable-background="new 0 0 100 100" xml:space="preserve">
<g>
	<g id="Head_41_">
		<path d="M50,25c18.195,0,33,14.804,33,33c0,18.195-14.805,33-33,33c-18.196,0-33-14.805-33-33C17,39.804,31.804,25,50,25 M50,17
			C27.356,17,9,35.355,9,58c0,22.645,18.356,41,41,41c22.645,0,41-18.355,41-41C91,35.355,72.645,17,50,17L50,17z"/>
	</g>
	<path id="path3092" inkscape:connector-curvature="0" fill="#D23B0F" d="M46.332,44.099l3.696,0.021l3.701,0.02l0.016,5.123
		c0.016,3.986,0.04,5.138,0.111,5.183c0.112,0.072,4.801,0.072,4.98,0c0.07-0.027,1.639-2.258,3.484-4.956s3.436-5.015,3.535-5.148
		l0.182-0.243l4.475,0.021c3.416,0.014,4.476,0.043,4.476,0.111c0,0.049-2.142,3.073-4.759,6.72
		c-2.615,3.646-4.767,6.682-4.777,6.746c-0.012,0.064,2.324,3.242,5.188,7.064c2.863,3.82,5.192,6.986,5.178,7.027
		c-0.016,0.053-1.559,0.08-4.606,0.092l-4.581,0.02l-2.18-3.059c-1.197-1.682-2.928-4.113-3.848-5.406l-1.669-2.352h-2.569H53.8
		l-0.035,5.391l-0.036,5.391l-3.65,0.016c-2.007,0.01-3.669-0.002-3.697-0.031c-0.027-0.027-0.05-6.283-0.05-13.9V44.099
		L46.332,44.099z M29.462,44.104c3.308-0.001,4.308,0.019,4.404,0.091c0.069,0.052,1.695,2.383,3.611,5.183l3.479,5.092l1.527,0.02
		c1.169,0.016,1.549,0.045,1.613,0.121c0.059,0.072,0.074,1.002,0.06,3.211l-0.02,3.115l-1.578,0.037
		c-1.063,0.025-1.603,0.063-1.638,0.119c-0.029,0.047-1.756,2.484-3.838,5.412L33.3,71.824h-4.561c-2.507,0-4.556-0.021-4.556-0.055
		s2.342-3.186,5.203-7.004c2.862-3.818,5.204-6.988,5.204-7.043c0-0.074-8.995-12.691-9.542-13.386
		c-0.056-0.071-0.046-0.118,0.031-0.167C25.139,44.132,27.027,44.104,29.462,44.104z"/>
</g>
</svg>
