<svg xmlns="http://www.w3.org/2000/svg" xmlns:xlink="http://www.w3.org/1999/xlink" version="1.1" id="Negative" x="0px" y="0px" width="100px" height="100px" viewBox="0 0 100 100" enable-background="new 0 0 100 100" xml:space="preserve">
<g id="Head_39_">
	<path d="M50,25c18.196,0,33,14.804,33,33S68.196,91,50,91S17,76.196,17,58S31.804,25,50,25 M50,17C27.356,17,9,35.355,9,58   s18.356,41,41,41s41-18.355,41-41S72.644,17,50,17L50,17z"/>
</g>
<path id="H" fill-rule="evenodd" clip-rule="evenodd" d="M70.106,58c0,2.758-2.485,5-5.552,5h-29.11c-3.065,0-5.55-2.242-5.55-5l0,0  c0-2.761,2.484-5,5.55-5h29.11C67.621,53,70.106,55.239,70.106,58L70.106,58z"/>
</svg>