<?xml version="1.0" encoding="utf-8"?>
<!-- Generator: Adobe Illustrator 15.0.3, SVG Export Plug-In . SVG Version: 6.00 Build 0)  -->
<!DOCTYPE svg PUBLIC "-//W3C//DTD SVG 1.1//EN" "http://www.w3.org/Graphics/SVG/1.1/DTD/svg11.dtd">
<svg version="1.1" id="Negative" xmlns="http://www.w3.org/2000/svg" xmlns:xlink="http://www.w3.org/1999/xlink" x="0px" y="0px"
	 width="100px" height="100px" viewBox="0 0 100 100" enable-background="new 0 0 100 100" xml:space="preserve">
<g id="Head_39_">
	<path d="M50,25c18.195,0,33,14.804,33,33c0,18.195-14.805,33-33,33c-18.196,0-33-14.805-33-33C17,39.804,31.804,25,50,25 M50,17
		C27.356,17,9,35.355,9,58c0,22.645,18.356,41,41,41c22.645,0,41-18.355,41-41C91,35.355,72.645,17,50,17L50,17z"/>
</g>
<rect x="35.427" y="50.305" fill="none" width="29.146" height="15.391"/>
<text transform="matrix(1 0 0 1 35.4268 64.4443)" font-family="'Casper'" font-size="20">net</text>
</svg>
