<svg xmlns="http://www.w3.org/2000/svg" xmlns:xlink="http://www.w3.org/1999/xlink" version="1.1" id="Positive" x="0px" y="0px" width="100px" height="100px" viewBox="0 0 100 100" enable-background="new 0 0 100 100" xml:space="preserve">
<g id="Head_37_">
	<path d="M50,25c18.195,0,33,14.804,33,33c0,18.195-14.805,33-33,33c-18.196,0-33-14.805-33-33C17,39.804,31.804,25,50,25 M50,17   C27.356,17,9,35.355,9,58c0,22.645,18.356,41,41,41c22.645,0,41-18.355,41-41C91,35.355,72.645,17,50,17L50,17z"/>
</g>
<path id="H" d="M70.105,58c0,2.758-2.484,5-5.551,5H35.444c-3.065,0-5.55-2.242-5.55-5l0,0c0-2.761,2.484-5,5.55-5h29.111  C67.621,53,70.105,55.239,70.105,58L70.105,58z"/>
<path id="V" d="M50.001,78.105c-2.758,0-5-2.484-5-5.551V43.443c0-3.064,2.242-5.549,5-5.549l0,0c2.761,0,4.999,2.484,4.999,5.549  v29.112C55,75.621,52.762,78.105,50.001,78.105L50.001,78.105z"/>
</svg>