<?xml version="1.0" encoding="utf-8"?>
<!-- Generator: Adobe Illustrator 15.0.3, SVG Export Plug-In . SVG Version: 6.00 Build 0)  -->
<!DOCTYPE svg PUBLIC "-//W3C//DTD SVG 1.1//EN" "http://www.w3.org/Graphics/SVG/1.1/DTD/svg11.dtd">
<svg version="1.1"
	 id="svg2986" xmlns:dc="http://purl.org/dc/elements/1.1/" xmlns:svg="http://www.w3.org/2000/svg" xmlns:cc="http://creativecommons.org/ns#" xmlns:rdf="http://www.w3.org/1999/02/22-rdf-syntax-ns#" xmlns:inkscape="http://www.inkscape.org/namespaces/inkscape" xmlns:sodipodi="http://sodipodi.sourceforge.net/DTD/sodipodi-0.dtd" inkscape:version="0.48.1 " sodipodi:docname="NounProject_SocialMedia.svg"
	 xmlns="http://www.w3.org/2000/svg" xmlns:xlink="http://www.w3.org/1999/xlink" x="0px" y="0px" width="100px" height="100px"
	 viewBox="0 0 100 100" enable-background="new 0 0 100 100" xml:space="preserve">
<title  id="title3815">Social Media</title>
<sodipodi:namedview  id="base" inkscape:cx="50" inkscape:zoom="5.44" showgrid="true" pagecolor="#ffffff" bordercolor="#666666" borderopacity="1.0" inkscape:cy="50" inkscape:window-y="-4" inkscape:window-x="-4" inkscape:window-height="744" inkscape:window-width="1280" inkscape:document-units="px" inkscape:grid-bbox="true" inkscape:current-layer="layer1" inkscape:pageshadow="2" inkscape:pageopacity="0.0" inkscape:window-maximized="1">
	</sodipodi:namedview>
<g>
	<path id="rect2994" inkscape:connector-curvature="0" d="M12.031,12.4C8.188,12.4,5,15.589,5,19.432V61.9
		c0,3.843,3.188,7.031,7.031,7.031h10.055l0.211,11.742l0.141,6.926l4.992-4.816l14.414-13.852h46.125
		c3.844,0,7.031-3.188,7.031-7.031V19.432c0-3.843-3.188-7.031-7.031-7.031H12.031z M12.031,18.447h75.938
		c0.592,0,0.984,0.393,0.984,0.984V61.9c0,0.592-0.393,0.984-0.984,0.984H40.613h-1.195l-0.879,0.844l-10.301,9.914l-0.176-7.805
		l-0.035-2.953h-2.988H12.031c-0.592,0-0.984-0.393-0.984-0.984V19.432C11.047,18.84,11.439,18.447,12.031,18.447z"/>
	<g id="layer1" transform="translate(-282.07284,-395.84327)" inkscape:label="Layer 1" inkscape:groupmode="layer">
		<g id="g2989" transform="matrix(0.125,0,0,-0.125,280.82284,538.26355)">
			<path id="path2991" inkscape:connector-curvature="0" fill="#00ACED" d="M449.938,940.429
				c-28.523-10.273-46.547-36.742-44.5-65.727l0.688-11.188l-11.406,1.375c-41.539,5.25-77.824,23.047-108.633,52.945
				l-15.063,14.828l-3.879-10.953c-8.215-24.414-2.969-50.203,14.148-67.547c9.129-9.586,7.074-10.953-8.672-5.25
				c-5.477,1.828-10.27,3.195-10.727,2.508c-1.598-1.594,3.879-22.359,8.215-30.578c5.934-11.414,18.031-22.594,31.266-29.211
				l11.184-5.25l-13.238-0.227c-12.777,0-13.234-0.227-11.867-5.023c4.566-14.828,22.594-30.578,42.676-37.422l14.152-4.797
				l-12.324-7.316c-18.258-10.484-39.711-16.422-61.16-16.875c-10.27-0.234-18.715-1.141-18.715-1.828
				c0-2.281,27.84-15.063,44.043-20.078c48.609-14.844,106.344-8.453,149.711,16.875c30.805,18.031,61.617,53.871,75.992,88.559
				c7.766,18.484,15.516,52.258,15.516,68.461c0,10.5,0.688,11.867,13.469,24.422c7.531,7.305,14.609,15.289,15.969,17.57
				c2.289,4.336,2.063,4.336-9.578,0.461c-19.398-6.852-22.141-5.938-12.555,4.336c7.078,7.297,15.523,20.539,15.523,24.414
				c0,0.688-3.422-0.453-7.305-2.508c-4.109-2.281-13.242-5.703-20.086-7.758l-12.32-3.883l-11.18,7.531
				c-6.164,4.109-14.836,8.672-19.406,10.039C478.242,944.53,460.438,944.077,449.938,940.429z"/>
		</g>
	</g>
</g>
</svg>
