<?xml version="1.0" encoding="utf-8"?>
<!-- Generator: Adobe Illustrator 15.0.3, SVG Export Plug-In . SVG Version: 6.00 Build 0)  -->
<!DOCTYPE svg PUBLIC "-//W3C//DTD SVG 1.1//EN" "http://www.w3.org/Graphics/SVG/1.1/DTD/svg11.dtd">
<svg version="1.1" id="Neutral" xmlns="http://www.w3.org/2000/svg" xmlns:xlink="http://www.w3.org/1999/xlink" x="0px" y="0px"
	 width="100px" height="100px" viewBox="0 0 100 100" enable-background="new 0 0 100 100" xml:space="preserve">
<g id="Head_41_">
	<path d="M50,25c18.195,0,33,14.804,33,33c0,18.195-14.805,33-33,33c-18.196,0-33-14.805-33-33C17,39.804,31.804,25,50,25 M50,17
		C27.356,17,9,35.355,9,58c0,22.645,18.356,41,41,41c22.645,0,41-18.355,41-41C91,35.355,72.645,17,50,17L50,17z"/>
</g>
<g id="Layer_x0020_1">
	<path fill="#1F1A17" d="M37.272,57.314c0.683,0,1.342-0.104,1.961-0.297c0.478-0.305,0.999-0.548,1.551-0.718
		c1.381-0.873,2.414-2.245,2.847-3.863l-0.069-0.068c-1.797-1.801-2.91-4.283-2.91-7.021c0-0.087,0.001-0.173,0.004-0.259
		c-0.989-0.594-2.147-0.936-3.384-0.936c-3.634,0-6.582,2.947-6.582,6.582C30.69,54.368,33.638,57.314,37.272,57.314z
		 M68.609,59.388h-4.484c0.475,0.887,0.744,1.898,0.744,2.969v4.166v0.508v0.029v1.785v10.889h2.112
		c2.215,0,4.208-1.001,5.547-2.573V63.309C72.528,61.152,70.765,59.388,68.609,59.388z M60.516,45.347
		c0,2.741-1.111,5.225-2.913,7.021c-0.304,0.304-0.628,0.589-0.97,0.852c0.461,1.127,1.225,2.099,2.189,2.811
		c1.316,0.06,2.533,0.525,3.523,1.273l0.383,0.011c3.634,0,6.581-2.946,6.581-6.58c0-3.635-2.947-6.582-6.581-6.582
		c-0.789,0-1.545,0.139-2.244,0.393C60.506,44.81,60.516,45.076,60.516,45.347z M41.681,45.169c0,4.916,3.986,8.902,8.903,8.902
		c4.916,0,8.902-3.986,8.902-8.902s-3.986-8.903-8.902-8.903C45.667,36.266,41.681,40.253,41.681,45.169z M42.629,56.876
		c-2.917,0-5.303,2.386-5.303,5.303v10.755v2.203v4.598h26.515V68.667v-2.321v-4.167c0-2.916-2.387-5.303-5.304-5.303H42.629z
		 M37.042,59.388h-5.651c-2.157,0-3.92,1.764-3.92,3.921v13.905c1.339,1.542,3.311,2.52,5.5,2.52h3.325v-4.419v-0.368v-0.203v-1.632
		V62.356C36.297,61.286,36.567,60.275,37.042,59.388z"/>
</g>
</svg>
